# xmcd CD database file
#
# Track frame offsets:
#	150
#	14195
#	26510
#	39968
#	54235
#	69120
#	87298
#	105598
#	118653
#	132713
#	154543
#	175313
#
# Disc length: 2543 seconds
#
# Revision: 2
# Processed by: cddbd v1.4b42PL1 Copyright (c) Steve Scherf et al.
# Submitted via: CDex 1.40Beta8
#
DISCID=9609ed0c
DTITLE=Johnny Cash Jerry Lee Lewis and Carl Perkins - The Survivors Live
DYEAR=1982
DGENRE=Country
TTITLE0=Get Rhythm
TTITLE1=I Forgot to Remember to Forget
TTITLE2=Goin' Down the Road Feelin' Bad
TTITLE3=That Silver Haired Daddy of Mine
TTITLE4=Matchbox
TTITLE5=I'll Fly Away
TTITLE6=Whole Lot of Shakin' Going On
TTITLE7=Rockin' My Life Away
TTITLE8=Blue Suede Shoes
TTITLE9=Peace in the Valley
TTITLE10=Will the Circle Be Unbroken
TTITLE11=I Saw the Light
EXTD=YEAR: 1982 ID3G: 2
EXTT0=
EXTT1=
EXTT2=
EXTT3=
EXTT4=
EXTT5=
EXTT6=
EXTT7=
EXTT8=
EXTT9=
EXTT10=
EXTT11=
PLAYORDER=
